<svg xmlns="http://www.w3.org/2000/svg" viewBox="0 0 1600 500" role="img" aria-label="bulbul lab">
<!-- Исправлено 12.09.2026. В присланном файле маска была навешена на ТЕКСТ, а
     сама птица ничем не залита: маска описывает форму, но рисовать её нечем.
     Плюс группа не закрывалась. Здесь птица — заливка через маску, текст вне
     маски. Цвета приведены к нашей палитре: бирюза #06BDBD вместо #40E0D0,
     чернила #171512 вместо #17282A — иначе рядом с интерфейсом это читается
     как два разных бирюзовых и два разных чёрных. -->
<defs>
  <mask id="bulbulBird" maskUnits="userSpaceOnUse" x="0" y="0" width="600" height="500">
    <rect width="600" height="500" fill="black"/>
    <g fill="white">
            <path d="M 499.1,55.0 430.6,87.5 363.1,99.0 339.4,114.8 323.8,133.6 308.3,170.3 325.7,185.0 343.0,207.0 355.8,239.5 356.7,261.5 346.7,235.3 334.8,216.5 309.2,190.2 278.2,170.3 239.9,155.6 146.8,138.9 98.4,119.0 122.1,179.8 140.4,207.0 155.0,221.7 192.4,242.7 264.5,259.4 283.7,272.0 298.3,291.9 264.5,271.0 194.2,261.5 166.8,252.1 142.2,236.4 165.9,279.4 197.9,306.6 235.3,318.1 291.9,312.9 253.5,345.4 179.6,435.6 136.7,469.1 165.0,468.1 185.1,461.8 211.6,442.9 233.5,412.5 266.3,411.5 302.8,402.0 336.6,385.2 370.4,356.9 401.4,312.9 418.8,266.8 424.2,233.2 421.5,187.1 428.8,152.5 444.3,123.1 Z"/>
      <path d="M 249.9,331.8 195.1,344.4 144.0,365.3 105.7,390.5 50.0,439.8 109.3,444.0 148.6,432.4 184.2,406.2 Z"/>
      <path d="M 385.9,113.7 397.8,116.9 403.2,128.4 400.5,137.8 392.3,144.1 382.3,142.0 376.8,133.6 378.6,120.0 Z"/>
    </g>
    <circle cx="390.0" cy="128.8" r="8.5" fill="black"/>
  </mask>
</defs>
<rect x="0" y="0" width="600" height="500" fill="#06BDBD" mask="url(#bulbulBird)"/>
<text x="650" y="315" font-family="Montserrat,'Noto Sans',Arial,sans-serif"
      font-weight="700" font-size="176" letter-spacing="-6" fill="#171512">bulbul</text>
<text x="1198" y="315" font-family="Montserrat,'Noto Sans',Arial,sans-serif"
      font-weight="400" font-size="176" letter-spacing="-6" fill="#06BDBD">lab</text>
</svg>